<svg width="25" height="24" viewBox="0 0 25 24" fill="none" xmlns="http://www.w3.org/2000/svg">
<g clip-path="url(#clip0_579_254)">
<path d="M21.5229 3.67419L14.0276 9.24105L15.4137 5.95668L21.5229 3.67419Z" fill="#E2761B" stroke="#E2761B" stroke-width="0.0753296" stroke-linecap="round" stroke-linejoin="round"/>
<path d="M4.21967 3.67419L11.6547 9.29378L10.3364 5.95668L4.21967 3.67419ZM18.8261 16.5781L16.8298 19.6365L21.101 20.8117L22.3289 16.6459L18.8261 16.5781ZM3.42871 16.6459L4.64905 20.8117L8.92024 19.6365L6.924 16.5781L3.42871 16.6459Z" fill="#E4761B" stroke="#E4761B" stroke-width="0.0753296" stroke-linecap="round" stroke-linejoin="round"/>
<path d="M8.67922 11.4105L7.48901 13.2109L11.7301 13.3992L11.5794 8.84179L8.67922 11.4105ZM17.0634 11.4105L14.1255 8.78906L14.0276 13.3992L18.2611 13.2109L17.0634 11.4105ZM8.92028 19.6365L11.4664 18.3936L9.26679 16.6761L8.92028 19.6365ZM14.2762 18.3936L16.8299 19.6365L16.4758 16.6761L14.2762 18.3936Z" fill="#E4761B" stroke="#E4761B" stroke-width="0.0753296" stroke-linecap="round" stroke-linejoin="round"/>
<path d="M16.8298 19.6366L14.2761 18.3936L14.4795 20.0584L14.4569 20.759L16.8298 19.6366ZM8.92017 19.6366L11.293 20.759L11.278 20.0584L11.4663 18.3936L8.92017 19.6366Z" fill="#D7C1B3" stroke="#D7C1B3" stroke-width="0.0753296" stroke-linecap="round" stroke-linejoin="round"/>
<path d="M11.3308 15.5763L9.20654 14.9511L10.7056 14.2656L11.3308 15.5763ZM14.4118 15.5763L15.0371 14.2656L16.5436 14.9511L14.4118 15.5763Z" fill="#233447" stroke="#233447" stroke-width="0.0753296" stroke-linecap="round" stroke-linejoin="round"/>
<path d="M8.92031 19.6365L9.28189 16.5782L6.92407 16.646L8.92031 19.6365ZM16.4683 16.5782L16.8299 19.6365L18.8261 16.646L16.4683 16.5782ZM18.2612 13.2109L14.0277 13.3993L14.4194 15.5763L15.0446 14.2656L16.5512 14.951L18.2612 13.2109ZM9.20656 14.951L10.7131 14.2656L11.3309 15.5763L11.7301 13.3993L7.48904 13.2109L9.20656 14.951Z" fill="#CD6116" stroke="#CD6116" stroke-width="0.0753296" stroke-linecap="round" stroke-linejoin="round"/>
<path d="M7.48901 13.2109L9.26679 16.6761L9.20653 14.951L7.48901 13.2109ZM16.5512 14.951L16.4758 16.6761L18.2611 13.2109L16.5512 14.951ZM11.7301 13.3993L11.3308 15.5763L11.828 18.145L11.941 14.7627L11.7301 13.3993ZM14.0276 13.3993L13.8242 14.7552L13.9146 18.145L14.4193 15.5763L14.0276 13.3993Z" fill="#E4751F" stroke="#E4751F" stroke-width="0.0753296" stroke-linecap="round" stroke-linejoin="round"/>
<path d="M14.4193 15.5763L13.9146 18.145L14.2762 18.3936L16.4758 16.6761L16.5512 14.951L14.4193 15.5763ZM9.20654 14.951L9.26681 16.6761L11.4664 18.3936L11.828 18.145L11.3308 15.5763L9.20654 14.951Z" fill="#F6851B" stroke="#F6851B" stroke-width="0.0753296" stroke-linecap="round" stroke-linejoin="round"/>
<path d="M14.4569 20.7589L14.4795 20.0584L14.2912 19.8927H11.4512L11.278 20.0584L11.293 20.7589L8.92017 19.6365L9.74879 20.3145L11.4286 21.4821H14.3138L16.0011 20.3145L16.8298 19.6365L14.4569 20.7589Z" fill="#C0AD9E" stroke="#C0AD9E" stroke-width="0.0753296" stroke-linecap="round" stroke-linejoin="round"/>
<path d="M14.2762 18.3936L13.9146 18.145H11.828L11.4664 18.3936L11.2781 20.0584L11.4513 19.8927H14.2913L14.4796 20.0584L14.2762 18.3936Z" fill="#161616" stroke="#161616" stroke-width="0.0753296" stroke-linecap="round" stroke-linejoin="round"/>
<path d="M21.8392 9.60263L22.4795 6.52919L21.5229 3.67419L14.2762 9.05273L17.0634 11.4105L21.0031 12.5631L21.8769 11.5461L21.5003 11.2749L22.1029 10.725L21.6359 10.3635L22.2385 9.90395L21.8392 9.60263ZM3.27051 6.52919L3.91081 9.60263L3.50403 9.90395L4.10667 10.3635L3.64716 10.725L4.24979 11.2749L3.87314 11.5461L4.73943 12.5631L8.67917 11.4105L11.4664 9.05273L4.21966 3.67419L3.27051 6.52919Z" fill="#763D16" stroke="#763D16" stroke-width="0.0753296" stroke-linecap="round" stroke-linejoin="round"/>
<path d="M21.0031 12.5631L17.0634 11.4106L18.2611 13.211L16.4758 16.6761L18.8261 16.646H22.3289L21.0031 12.5631ZM8.67918 11.4106L4.73945 12.5631L3.42871 16.646H6.924L9.26675 16.6761L7.48897 13.211L8.67918 11.4106ZM14.0276 13.3993L14.2762 9.05277L15.4212 5.95673H10.3364L11.4664 9.05277L11.73 13.3993L11.8204 14.7703L11.828 18.145H13.9146L13.9297 14.7703L14.0276 13.3993Z" fill="#F6851B" stroke="#F6851B" stroke-width="0.0753296" stroke-linecap="round" stroke-linejoin="round"/>
</g>
<defs>
<clipPath id="clip0_579_254">
<rect width="24" height="24" fill="white" transform="translate(0.875)"/>
</clipPath>
</defs>
</svg>
